<?xml version="1.0" standalone="no"?>
<!DOCTYPE svg PUBLIC "-//W3C//DTD SVG 20010904//EN"
 "http://www.w3.org/TR/2001/REC-SVG-20010904/DTD/svg10.dtd">
<svg version="1.0" xmlns="http://www.w3.org/2000/svg"
 width="500.000000pt" height="500.000000pt" viewBox="0 0 500.000000 500.000000"
 preserveAspectRatio="xMidYMid meet">
<metadata>
Created by potrace 1.14, written by Peter Selinger 2001-2017
</metadata>
<g transform="translate(0.000000,500.000000) scale(0.100000,-0.100000)"
fill="#000000" stroke="none">
<path d="M0 2500 l0 -2500 688 2 687 3 28 235 c17 149 29 317 33 460 6 202 3
263 -25 595 -18 204 -34 402 -37 441 l-5 72 -97 4 c-106 5 -143 18 -200 72
-46 43 -69 91 -82 172 -16 97 2 261 41 381 25 76 88 153 127 153 14 0 55 12
91 27 62 25 78 27 262 31 l196 4 6 -113 c8 -131 21 -189 66 -277 36 -71 92
-132 148 -160 109 -55 445 -63 616 -15 73 20 146 83 181 156 25 51 66 194 66
228 0 24 8 27 72 35 l55 6 7 -47 c12 -74 45 -194 66 -235 27 -52 84 -97 150
-118 43 -13 91 -17 215 -16 166 0 223 11 267 51 17 15 18 12 20 -68 0 -46 1
-91 0 -99 0 -8 -3 -94 -6 -190 -7 -286 -49 -538 -111 -667 -44 -95 -78 -143
-165 -236 -174 -186 -348 -270 -682 -327 -65 -11 -163 -21 -218 -22 -81 -1
-101 -5 -105 -17 -14 -47 -24 -253 -18 -378 l6 -143 1329 0 1328 0 0 2500 0
2500 -2500 0 -2500 0 0 -2500z m2760 1660 c202 -25 403 -82 520 -147 79 -44
175 -138 218 -214 37 -65 94 -233 116 -341 18 -89 36 -384 36 -605 l0 -153
-365 0 -365 0 0 -64 c0 -72 -4 -76 -75 -76 l-44 0 -3 73 -3 72 -724 0 -724 0
6 325 c8 423 22 520 99 675 97 193 232 307 448 378 80 27 244 63 350 76 96 12
412 13 510 1z"/>
</g>
</svg>
